<?xml version="1.0" encoding="UTF-8" standalone="no"?>
<svg width="249px" height="27px" viewBox="0 0 249 27" version="1.1" xmlns="http://www.w3.org/2000/svg" xmlns:xlink="http://www.w3.org/1999/xlink" xmlns:sketch="http://www.bohemiancoding.com/sketch/ns">
    <!-- Generator: Sketch 3.5.2 (25235) - http://www.bohemiancoding.com/sketch -->
    <title>ubereats-logo-nofork</title>
    <desc>Created with Sketch.</desc>
    <defs></defs>
    <g id="Page-1" stroke="none" stroke-width="1" fill="none" fill-rule="evenodd" sketch:type="MSPage">
        <g id="ubereats-logo-nofork" sketch:type="MSLayerGroup">
            <g id="XMLID_165_" sketch:type="MSShapeGroup">
                <g id="XMLID_183_" transform="translate(0.000000, 1.000000)" fill="#010101">
                    <path d="M19.2,0.8 L19.2,14.6 C19.2,19.2 17.2,21.1 12.4,21.1 C7.6,21.1 5.6,19.2 5.6,14.6 L5.6,0.2 L1,0.2 C0.7,0.2 0.4,0.5 0.4,0.8 L0.4,14.8 C0.4,22.5 5.3,25.2 12.4,25.2 C19.5,25.2 24.4,22.5 24.4,14.8 L24.4,0.2 L19.8,0.2 C19.4,0.2 19.2,0.5 19.2,0.8 L19.2,0.8 Z" id="XMLID_192_"></path>
                    <path d="M86,4.2 C86.4,4.2 86.6,4.1 86.7,3.8 L88,0.5 C88.1,0.3 88,0.2 87.8,0.2 L69.2,0.2 C67.5,0.2 66.8,0.7 66.8,1.9 L66.8,23.3 C66.8,24.3 67.3,24.8 68.6,24.8 L86,24.8 C86.4,24.8 86.6,24.7 86.7,24.4 L88,21.1 C88.1,20.9 88,20.8 87.8,20.8 L72,20.8 L72,16.4 C72,14.9 72.8,14.2 75.1,14.2 L82,14.2 C82.4,14.2 82.6,14.1 82.7,13.8 L84,10.6 C84.1,10.4 84,10.3 83.8,10.3 L72,10.3 L72,4.1 L86,4.1 L86,4.2 Z" id="XMLID_191_"></path>
                    <path d="M53.3,11.9 C55.3,10.8 56.1,8.9 56.1,6.5 C56.1,1.1 51.7,0.3 47.1,0.3 L36.6,0.3 C34.9,0.3 34.2,0.8 34.2,2 L34.2,23.4 C34.2,24.4 34.7,24.9 36,24.9 L49,24.9 C53.9,24.9 57.3,23 57.3,18.1 C57.3,15.1 56.1,12.6 53.3,11.9 L53.3,11.9 Z M39.4,4.2 L47.5,4.2 C50.2,4.2 51,5.2 51,7.3 C51,9.4 50.2,10.4 47.5,10.4 L39.4,10.4 L39.4,4.2 L39.4,4.2 Z M48.5,20.9 L39.4,20.9 L39.4,16.4 C39.4,14.9 40.2,14.2 42.5,14.2 L48.5,14.2 C51.4,14.2 52.2,15.3 52.2,17.6 C52.2,19.8 51.4,20.9 48.5,20.9 L48.5,20.9 Z" id="XMLID_187_"></path>
                    <path d="M120.2,24.4 L114.7,14.9 C117.4,14.2 119.7,12.4 119.7,7.8 C119.7,1.8 116,0.2 109.9,0.2 L99.4,0.2 C97.7,0.2 97,0.7 97,1.9 L97,24.2 C97,24.5 97.3,24.8 97.6,24.8 L102.1,24.8 L102.1,17.6 C102.1,16.1 102.9,15.4 105.2,15.4 L109.7,15.4 L114.7,24.4 C114.9,24.7 115,24.8 115.4,24.8 L120.1,24.8 C120.3,24.9 120.3,24.6 120.2,24.4 L120.2,24.4 Z M110.6,11.6 L102,11.6 L102,4.1 L110.6,4.1 C113.8,4.1 114.5,5.3 114.5,7.8 C114.5,10.4 113.8,11.6 110.6,11.6 L110.6,11.6 Z" id="XMLID_184_"></path>
                </g>
                <g id="XMLID_173_" transform="translate(140.000000, 0.000000)" stroke="#57AD56" stroke-width="0.25" fill="#57AD56">
                    <path d="M18.5,23.6 L18.4,25.8 L0.2,25.8 L0.2,1.2 L17.7,1.2 L17.8,3.5 L2.7,3.5 L2.7,12 L15.7,12 L15.7,14 L2.7,14 L2.7,23.6 L18.5,23.6 L18.5,23.6 Z" id="XMLID_181_"></path>
                    <path d="M48.1,19.4 L33.6,19.4 L30.8,25.8 L28.1,25.8 L39.5,1.2 L42.4,1.2 L53.7,25.8 L50.9,25.8 L48.1,19.4 L48.1,19.4 Z M39.8,5.5 L34.5,17.4 L47.1,17.4 L41.9,5.5 L40.9,3 L40.8,3 L39.8,5.5 L39.8,5.5 Z" id="XMLID_178_"></path>
                    <path d="M71.7,3.5 L71.7,25.8 L69.2,25.8 L69.2,3.5 L60,3.5 L60.1,1.2 L81,1.2 L81,3.5 L71.7,3.5 L71.7,3.5 Z" id="XMLID_176_"></path>
                    <path d="M98.9,26.3 C95.5,26.3 92.8,25.5 90.6,24.2 L91,22 C93.3,23.3 95.9,24.1 99,24.1 C103.6,24.1 106,22 106,19 C106,12.5 91,15.9 91,7.5 C91,3.9 93.7,0.7 100,0.7 C102.9,0.7 105.5,1.2 107.6,2.2 L107.2,4.3 C104.9,3.4 102.7,2.9 100.1,2.9 C95.2,2.9 93.4,5.1 93.4,7.3 C93.4,13.5 108.4,10 108.4,18.8 C108.3,23.3 105,26.3 98.9,26.3 L98.9,26.3 Z" id="XMLID_174_"></path>
                </g>
            </g>
        </g>
    </g>
</svg>